<?xml version="1.0" encoding="UTF-8" standalone="no"?>
<!DOCTYPE svg PUBLIC "-//W3C//DTD SVG 1.1//EN"
 "http://www.w3.org/Graphics/SVG/1.1/DTD/svg11.dtd">
<!-- Generated by graphviz version 2.26.3 (20100126.1600)
 -->
<!-- Title: G Pages: 1 -->
<svg width="422pt" height="262pt"
 viewBox="0.00 0.00 422.00 262.00" xmlns="http://www.w3.org/2000/svg" xmlns:xlink="http://www.w3.org/1999/xlink">
<g id="graph1" class="graph" transform="scale(1 1) rotate(0) translate(4 258)">
<title>G</title>
<polygon fill="white" stroke="white" points="-4,5 -4,-258 419,-258 419,5 -4,5"/>
<!-- a -->
<g id="node1" class="node"><title>a</title>
<ellipse fill="none" stroke="black" cx="225" cy="-235" rx="39.8075" ry="18.3848"/>
<text text-anchor="middle" x="225" y="-231.4" font-family="Times Roman,serif" font-size="14.00">config</text>
</g>
<!-- b -->
<g id="node2" class="node"><title>b</title>
<ellipse fill="none" stroke="black" cx="171" cy="-162" rx="27" ry="18"/>
</g>
<!-- a&#45;&gt;b -->
<g id="edge2" class="edge"><title>a&#45;&gt;b</title>
<path fill="none" stroke="black" d="M211.928,-217.329C205.1,-208.098 196.636,-196.656 189.179,-186.576"/>
<polygon fill="black" stroke="black" points="191.972,-184.466 183.211,-178.508 186.344,-188.629 191.972,-184.466"/>
</g>
<!-- i -->
<g id="node9" class="node"><title>i</title>
<ellipse fill="none" stroke="black" cx="279" cy="-162" rx="27" ry="18"/>
</g>
<!-- a&#45;&gt;i -->
<g id="edge18" class="edge"><title>a&#45;&gt;i</title>
<path fill="none" stroke="black" d="M238.072,-217.329C244.9,-208.098 253.364,-196.656 260.821,-186.576"/>
<polygon fill="black" stroke="black" points="263.656,-188.629 266.789,-178.508 258.028,-184.466 263.656,-188.629"/>
</g>
<!-- c -->
<g id="node3" class="node"><title>c</title>
<ellipse fill="orange" stroke="black" cx="99" cy="-90" rx="27" ry="18"/>
</g>
<!-- b&#45;&gt;c -->
<g id="edge4" class="edge"><title>b&#45;&gt;c</title>
<path fill="none" stroke="black" d="M155.731,-146.731C145.803,-136.803 132.685,-123.685 121.564,-112.564"/>
<polygon fill="black" stroke="black" points="123.793,-109.844 114.247,-105.247 118.844,-114.793 123.793,-109.844"/>
</g>
<!-- d -->
<g id="node4" class="node"><title>d</title>
<ellipse fill="none" stroke="black" cx="171" cy="-90" rx="27" ry="18"/>
</g>
<!-- b&#45;&gt;d -->
<g id="edge10" class="edge"><title>b&#45;&gt;d</title>
<path fill="none" stroke="black" d="M171,-143.831C171,-136.131 171,-126.974 171,-118.417"/>
<polygon fill="black" stroke="black" points="174.5,-118.413 171,-108.413 167.5,-118.413 174.5,-118.413"/>
</g>
<!-- e -->
<g id="node5" class="node"><title>e</title>
<ellipse fill="none" stroke="black" cx="27" cy="-18" rx="27" ry="18"/>
</g>
<!-- c&#45;&gt;e -->
<g id="edge6" class="edge"><title>c&#45;&gt;e</title>
<path fill="none" stroke="black" d="M83.7307,-74.7307C73.803,-64.803 60.6847,-51.6847 49.5637,-40.5637"/>
<polygon fill="black" stroke="black" points="51.7933,-37.8436 42.2473,-33.2473 46.8436,-42.7933 51.7933,-37.8436"/>
</g>
<!-- f -->
<g id="node6" class="node"><title>f</title>
<ellipse fill="none" stroke="black" cx="99" cy="-18" rx="27" ry="18"/>
</g>
<!-- c&#45;&gt;f -->
<g id="edge8" class="edge"><title>c&#45;&gt;f</title>
<path fill="none" stroke="black" d="M99,-71.8314C99,-64.131 99,-54.9743 99,-46.4166"/>
<polygon fill="black" stroke="black" points="102.5,-46.4132 99,-36.4133 95.5001,-46.4133 102.5,-46.4132"/>
</g>
<!-- d&#45;&gt;f -->
<g id="edge12" class="edge"><title>d&#45;&gt;f</title>
<path fill="none" stroke="black" d="M155.731,-74.7307C145.803,-64.803 132.685,-51.6847 121.564,-40.5637"/>
<polygon fill="black" stroke="black" points="123.793,-37.8436 114.247,-33.2473 118.844,-42.7933 123.793,-37.8436"/>
</g>
<!-- g -->
<g id="node7" class="node"><title>g</title>
<ellipse fill="none" stroke="black" cx="171" cy="-18" rx="27" ry="18"/>
</g>
<!-- d&#45;&gt;g -->
<g id="edge14" class="edge"><title>d&#45;&gt;g</title>
<path fill="none" stroke="black" d="M171,-71.8314C171,-64.131 171,-54.9743 171,-46.4166"/>
<polygon fill="black" stroke="black" points="174.5,-46.4132 171,-36.4133 167.5,-46.4133 174.5,-46.4132"/>
</g>
<!-- h -->
<g id="node8" class="node"><title>h</title>
<ellipse fill="none" stroke="black" cx="243" cy="-18" rx="27" ry="18"/>
</g>
<!-- d&#45;&gt;h -->
<g id="edge16" class="edge"><title>d&#45;&gt;h</title>
<path fill="none" stroke="black" d="M186.269,-74.7307C196.197,-64.803 209.315,-51.6847 220.436,-40.5637"/>
<polygon fill="black" stroke="black" points="223.156,-42.7933 227.753,-33.2473 218.207,-37.8436 223.156,-42.7933"/>
</g>
<!-- j -->
<g id="node10" class="node"><title>j</title>
<ellipse fill="none" stroke="black" cx="315" cy="-90" rx="27" ry="18"/>
</g>
<!-- i&#45;&gt;j -->
<g id="edge20" class="edge"><title>i&#45;&gt;j</title>
<path fill="none" stroke="black" d="M287.715,-144.571C291.96,-136.081 297.154,-125.693 301.866,-116.267"/>
<polygon fill="black" stroke="black" points="305.024,-117.778 306.366,-107.269 298.763,-114.648 305.024,-117.778"/>
</g>
<!-- k -->
<g id="node11" class="node"><title>k</title>
<ellipse fill="none" stroke="black" cx="315" cy="-18" rx="27" ry="18"/>
</g>
<!-- j&#45;&gt;k -->
<g id="edge22" class="edge"><title>j&#45;&gt;k</title>
<path fill="none" stroke="black" d="M315,-71.8314C315,-64.131 315,-54.9743 315,-46.4166"/>
<polygon fill="black" stroke="black" points="318.5,-46.4132 315,-36.4133 311.5,-46.4133 318.5,-46.4132"/>
</g>
<!-- l -->
<g id="node12" class="node"><title>l</title>
<ellipse fill="none" stroke="black" cx="387" cy="-18" rx="27" ry="18"/>
</g>
<!-- j&#45;&gt;l -->
<g id="edge24" class="edge"><title>j&#45;&gt;l</title>
<path fill="none" stroke="black" d="M330.269,-74.7307C340.197,-64.803 353.315,-51.6847 364.436,-40.5637"/>
<polygon fill="black" stroke="black" points="367.156,-42.7933 371.753,-33.2473 362.207,-37.8436 367.156,-42.7933"/>
</g>
</g>
</svg>
