<?xml version="1.0" encoding="UTF-8" standalone="no"?>
<!DOCTYPE svg PUBLIC "-//W3C//DTD SVG 1.1//EN"
 "http://www.w3.org/Graphics/SVG/1.1/DTD/svg11.dtd">
<!-- Generated by graphviz version 2.26.3 (20100126.1600)
 -->
<!-- Title: G Pages: 1 -->
<svg width="465pt" height="262pt"
 viewBox="0.00 0.00 465.00 262.00" xmlns="http://www.w3.org/2000/svg" xmlns:xlink="http://www.w3.org/1999/xlink">
<g id="graph1" class="graph" transform="scale(1 1) rotate(0) translate(4 258)">
<title>G</title>
<polygon fill="white" stroke="white" points="-4,5 -4,-258 462,-258 462,5 -4,5"/>
<!-- aa -->
<g id="node1" class="node"><title>aa</title>
<ellipse fill="none" stroke="none" cx="105" cy="-235" rx="104.86" ry="18.3848"/>
<text text-anchor="middle" x="105" y="-231.4" font-family="Times Roman,serif" font-size="14.00">new way (minimal)</text>
</g>
<!-- a -->
<g id="node3" class="node"><title>a</title>
<ellipse fill="orange" stroke="grey" cx="268" cy="-235" rx="39.8075" ry="18.3848"/>
<text text-anchor="middle" x="268" y="-231.4" font-family="Times Roman,serif" font-size="14.00">config</text>
</g>
<!-- aa&#45;&gt;a -->
<g id="edge2" class="edge"><title>aa&#45;&gt;a</title>
<path fill="none" stroke="none" d="M210.059,-235C212.541,-235 215.024,-235 217.506,-235"/>
<polygon fill="none" stroke="none" points="217.713,-238.5 227.713,-235 217.713,-231.5 217.713,-238.5"/>
</g>
<!-- b -->
<g id="node6" class="node"><title>b</title>
<ellipse fill="orange" stroke="grey" cx="214" cy="-162" rx="27" ry="18"/>
</g>
<!-- a&#45;&gt;b -->
<g id="edge5" class="edge"><title>a&#45;&gt;b</title>
<path fill="none" stroke="black" d="M254.928,-217.329C248.1,-208.098 239.636,-196.656 232.179,-186.576"/>
<polygon fill="black" stroke="black" points="234.972,-184.466 226.211,-178.508 229.344,-188.629 234.972,-184.466"/>
</g>
<!-- i -->
<g id="node21" class="node"><title>i</title>
<ellipse fill="lightgrey" stroke="grey" cx="322" cy="-162" rx="27" ry="18"/>
</g>
<!-- a&#45;&gt;i -->
<g id="edge21" class="edge"><title>a&#45;&gt;i</title>
<path fill="none" stroke="grey" d="M281.072,-217.329C287.9,-208.098 296.364,-196.656 303.821,-186.576"/>
<polygon fill="grey" stroke="grey" points="306.656,-188.629 309.789,-178.508 301.028,-184.466 306.656,-188.629"/>
</g>
<!-- c -->
<g id="node5" class="node"><title>c</title>
<ellipse fill="red" stroke="grey" cx="142" cy="-90" rx="27" ry="18"/>
</g>
<!-- e -->
<g id="node7" class="node"><title>e</title>
<ellipse fill="orange" stroke="grey" cx="70" cy="-18" rx="27" ry="18"/>
</g>
<!-- c&#45;&gt;e -->
<g id="edge9" class="edge"><title>c&#45;&gt;e</title>
<path fill="none" stroke="black" d="M126.731,-74.7307C116.803,-64.803 103.685,-51.6847 92.5637,-40.5637"/>
<polygon fill="black" stroke="black" points="94.7933,-37.8436 85.2473,-33.2473 89.8436,-42.7933 94.7933,-37.8436"/>
</g>
<!-- f -->
<g id="node8" class="node"><title>f</title>
<ellipse fill="orange" stroke="grey" cx="142" cy="-18" rx="27" ry="18"/>
</g>
<!-- c&#45;&gt;f -->
<g id="edge11" class="edge"><title>c&#45;&gt;f</title>
<path fill="none" stroke="black" d="M142,-71.8314C142,-64.131 142,-54.9743 142,-46.4166"/>
<polygon fill="black" stroke="black" points="145.5,-46.4132 142,-36.4133 138.5,-46.4133 145.5,-46.4132"/>
</g>
<!-- b&#45;&gt;c -->
<g id="edge7" class="edge"><title>b&#45;&gt;c</title>
<path fill="none" stroke="black" d="M198.731,-146.731C188.803,-136.803 175.685,-123.685 164.564,-112.564"/>
<polygon fill="black" stroke="black" points="166.793,-109.844 157.247,-105.247 161.844,-114.793 166.793,-109.844"/>
</g>
<!-- d -->
<g id="node14" class="node"><title>d</title>
<ellipse fill="lightgrey" stroke="grey" cx="214" cy="-90" rx="27" ry="18"/>
</g>
<!-- b&#45;&gt;d -->
<g id="edge13" class="edge"><title>b&#45;&gt;d</title>
<path fill="none" stroke="grey" d="M214,-143.831C214,-136.131 214,-126.974 214,-118.417"/>
<polygon fill="grey" stroke="grey" points="217.5,-118.413 214,-108.413 210.5,-118.413 217.5,-118.413"/>
</g>
<!-- d&#45;&gt;f -->
<g id="edge15" class="edge"><title>d&#45;&gt;f</title>
<path fill="none" stroke="grey" d="M198.731,-74.7307C188.803,-64.803 175.685,-51.6847 164.564,-40.5637"/>
<polygon fill="grey" stroke="grey" points="166.793,-37.8436 157.247,-33.2473 161.844,-42.7933 166.793,-37.8436"/>
</g>
<!-- g -->
<g id="node17" class="node"><title>g</title>
<ellipse fill="lightgrey" stroke="grey" cx="214" cy="-18" rx="27" ry="18"/>
</g>
<!-- d&#45;&gt;g -->
<g id="edge17" class="edge"><title>d&#45;&gt;g</title>
<path fill="none" stroke="grey" d="M214,-71.8314C214,-64.131 214,-54.9743 214,-46.4166"/>
<polygon fill="grey" stroke="grey" points="217.5,-46.4132 214,-36.4133 210.5,-46.4133 217.5,-46.4132"/>
</g>
<!-- h -->
<g id="node19" class="node"><title>h</title>
<ellipse fill="lightgrey" stroke="grey" cx="286" cy="-18" rx="27" ry="18"/>
</g>
<!-- d&#45;&gt;h -->
<g id="edge19" class="edge"><title>d&#45;&gt;h</title>
<path fill="none" stroke="grey" d="M229.269,-74.7307C239.197,-64.803 252.315,-51.6847 263.436,-40.5637"/>
<polygon fill="grey" stroke="grey" points="266.156,-42.7933 270.753,-33.2473 261.207,-37.8436 266.156,-42.7933"/>
</g>
<!-- j -->
<g id="node23" class="node"><title>j</title>
<ellipse fill="lightgrey" stroke="grey" cx="358" cy="-90" rx="27" ry="18"/>
</g>
<!-- i&#45;&gt;j -->
<g id="edge23" class="edge"><title>i&#45;&gt;j</title>
<path fill="none" stroke="grey" d="M330.715,-144.571C334.96,-136.081 340.154,-125.693 344.866,-116.267"/>
<polygon fill="grey" stroke="grey" points="348.024,-117.778 349.366,-107.269 341.763,-114.648 348.024,-117.778"/>
</g>
<!-- k -->
<g id="node25" class="node"><title>k</title>
<ellipse fill="lightgrey" stroke="grey" cx="358" cy="-18" rx="27" ry="18"/>
</g>
<!-- j&#45;&gt;k -->
<g id="edge25" class="edge"><title>j&#45;&gt;k</title>
<path fill="none" stroke="grey" d="M358,-71.8314C358,-64.131 358,-54.9743 358,-46.4166"/>
<polygon fill="grey" stroke="grey" points="361.5,-46.4132 358,-36.4133 354.5,-46.4133 361.5,-46.4132"/>
</g>
<!-- l -->
<g id="node27" class="node"><title>l</title>
<ellipse fill="lightgrey" stroke="grey" cx="430" cy="-18" rx="27" ry="18"/>
</g>
<!-- j&#45;&gt;l -->
<g id="edge27" class="edge"><title>j&#45;&gt;l</title>
<path fill="none" stroke="grey" d="M373.269,-74.7307C383.197,-64.803 396.315,-51.6847 407.436,-40.5637"/>
<polygon fill="grey" stroke="grey" points="410.156,-42.7933 414.753,-33.2473 405.207,-37.8436 410.156,-42.7933"/>
</g>
</g>
</svg>
