<?xml version="1.0" encoding="UTF-8" standalone="no"?>
<!DOCTYPE svg PUBLIC "-//W3C//DTD SVG 1.1//EN"
 "http://www.w3.org/Graphics/SVG/1.1/DTD/svg11.dtd">
<!-- Generated by graphviz version 2.26.3 (20100126.1600)
 -->
<!-- Title: G Pages: 1 -->
<svg width="183pt" height="190pt"
 viewBox="0.00 0.00 183.00 190.00" xmlns="http://www.w3.org/2000/svg" xmlns:xlink="http://www.w3.org/1999/xlink">
<g id="graph1" class="graph" transform="scale(1 1) rotate(0) translate(4 186)">
<title>G</title>
<polygon fill="white" stroke="white" points="-4,5 -4,-186 180,-186 180,5 -4,5"/>
<!-- aa -->
<g id="node1" class="node"><title>aa</title>
<ellipse fill="none" stroke="none" cx="27" cy="-163" rx="27" ry="18"/>
</g>
<!-- a -->
<g id="node3" class="node"><title>a</title>
<ellipse fill="lightgrey" stroke="grey" cx="112" cy="-163" rx="39.8075" ry="18.3848"/>
<text text-anchor="middle" x="112" y="-159.4" font-family="Times Roman,serif" font-size="14.00">config</text>
</g>
<!-- aa&#45;&gt;a -->
<g id="edge2" class="edge"><title>aa&#45;&gt;a</title>
<path fill="none" stroke="none" d="M54.2266,-163C56.702,-163 59.1774,-163 61.6528,-163"/>
<polygon fill="none" stroke="none" points="61.8294,-166.5 71.8294,-163 61.8294,-159.5 61.8294,-166.5"/>
</g>
<!-- b -->
<g id="node7" class="node"><title>b</title>
<ellipse fill="lightgrey" stroke="grey" cx="76" cy="-90" rx="27" ry="18"/>
</g>
<!-- a&#45;&gt;b -->
<g id="edge5" class="edge"><title>a&#45;&gt;b</title>
<path fill="none" stroke="black" d="M103.101,-144.955C98.8535,-136.342 93.6884,-125.868 89.0111,-116.384"/>
<polygon fill="black" stroke="black" points="92.1106,-114.755 84.5486,-107.335 85.8325,-117.851 92.1106,-114.755"/>
</g>
<!-- i -->
<g id="node12" class="node"><title>i</title>
<ellipse fill="lightgrey" stroke="grey" cx="148" cy="-90" rx="27" ry="18"/>
</g>
<!-- a&#45;&gt;i -->
<g id="edge11" class="edge"><title>a&#45;&gt;i</title>
<path fill="none" stroke="black" d="M120.899,-144.955C125.146,-136.342 130.312,-125.868 134.989,-116.384"/>
<polygon fill="black" stroke="black" points="138.167,-117.851 139.451,-107.335 131.889,-114.755 138.167,-117.851"/>
</g>
<!-- c -->
<g id="node5" class="node"><title>c</title>
<ellipse fill="red" stroke="grey" cx="40" cy="-18" rx="27" ry="18"/>
</g>
<!-- b&#45;&gt;c -->
<g id="edge7" class="edge"><title>b&#45;&gt;c</title>
<path fill="none" stroke="black" d="M67.2854,-72.5708C63.0403,-64.0807 57.8464,-53.6929 53.1337,-44.2674"/>
<polygon fill="black" stroke="black" points="56.237,-42.6477 48.6343,-35.2687 49.976,-45.7782 56.237,-42.6477"/>
</g>
<!-- d -->
<g id="node10" class="node"><title>d</title>
<ellipse fill="lightgrey" stroke="grey" cx="112" cy="-18" rx="27" ry="18"/>
</g>
<!-- b&#45;&gt;d -->
<g id="edge9" class="edge"><title>b&#45;&gt;d</title>
<path fill="none" stroke="black" d="M84.7146,-72.5708C88.9597,-64.0807 94.1536,-53.6929 98.8663,-44.2674"/>
<polygon fill="black" stroke="black" points="102.024,-45.7782 103.366,-35.2687 95.763,-42.6477 102.024,-45.7782"/>
</g>
</g>
</svg>
