<?xml version="1.0" encoding="UTF-8" standalone="no"?>
<!DOCTYPE svg PUBLIC "-//W3C//DTD SVG 1.1//EN"
 "http://www.w3.org/Graphics/SVG/1.1/DTD/svg11.dtd">
<!-- Generated by graphviz version 2.26.3 (20100126.1600)
 -->
<!-- Title: G Pages: 1 -->
<svg width="290pt" height="192pt"
 viewBox="0.00 0.00 290.00 192.00" xmlns="http://www.w3.org/2000/svg" xmlns:xlink="http://www.w3.org/1999/xlink">
<g id="graph1" class="graph" transform="scale(1 1) rotate(0) translate(4 188)">
<title>G</title>
<polygon fill="white" stroke="white" points="-4,5 -4,-188 287,-188 287,5 -4,5"/>
<!-- bb -->
<g id="node1" class="node"><title>bb</title>
<ellipse fill="orange" stroke="none" cx="87" cy="-93" rx="50.9117" ry="19.0919"/>
<text text-anchor="middle" x="87" y="-89.9" font-family="Helvetica,sans-Serif" font-size="14.00">service A</text>
</g>
<!-- b -->
<g id="node3" class="node"><title>b</title>
<polygon fill="orange" stroke="none" points="210,-111 156,-111 156,-75 210,-75 210,-111"/>
</g>
<!-- bb&#45;&gt;b -->
<g id="edge2" class="edge"><title>bb&#45;&gt;b</title>
<path fill="none" stroke="black" d="M138,-93C140.615,-93 143.229,-93 145.844,-93"/>
<polygon fill="black" stroke="black" points="145.93,-96.5001 155.93,-93 145.93,-89.5001 145.93,-96.5001"/>
</g>
<!-- c -->
<g id="node7" class="node"><title>c</title>
<polygon fill="orange" stroke="none" points="174,-37 120,-37 120,-1 174,-1 174,-37"/>
</g>
<!-- b&#45;&gt;c -->
<g id="edge10" class="edge"><title>b&#45;&gt;c</title>
<path fill="none" stroke="black" d="M174.101,-74.7079C169.916,-66.1051 164.84,-55.6713 160.218,-46.1699"/>
<polygon fill="black" stroke="black" points="163.319,-44.5429 155.797,-37.0817 157.024,-47.6052 163.319,-44.5429"/>
</g>
<!-- d -->
<g id="node10" class="node"><title>d</title>
<polygon fill="red" stroke="none" points="246,-37 192,-37 192,-1 246,-1 246,-37"/>
<text text-anchor="middle" x="219" y="-15.9" font-family="Helvetica,sans-Serif" font-size="14.00">!new!</text>
</g>
<!-- b&#45;&gt;d -->
<g id="edge12" class="edge"><title>b&#45;&gt;d</title>
<path fill="none" stroke="black" d="M191.899,-74.7079C196.084,-66.1051 201.16,-55.6713 205.782,-46.1699"/>
<polygon fill="black" stroke="black" points="208.976,-47.6052 210.203,-37.0817 202.681,-44.5429 208.976,-47.6052"/>
</g>
<!-- cc -->
<g id="node5" class="node"><title>cc</title>
<ellipse fill="orange" stroke="none" cx="51" cy="-19" rx="50.9117" ry="19.0919"/>
<text text-anchor="middle" x="51" y="-15.9" font-family="Helvetica,sans-Serif" font-size="14.00">service B</text>
</g>
<!-- cc&#45;&gt;c -->
<g id="edge5" class="edge"><title>cc&#45;&gt;c</title>
<path fill="none" stroke="black" d="M102,-19C104.615,-19 107.229,-19 109.844,-19"/>
<polygon fill="black" stroke="black" points="109.93,-22.5001 119.93,-19 109.93,-15.5001 109.93,-22.5001"/>
</g>
<!-- a -->
<g id="node9" class="node"><title>a</title>
<polygon fill="orange" stroke="none" points="246,-184 192,-184 192,-148 246,-148 246,-184"/>
<text text-anchor="middle" x="219" y="-162.9" font-family="Helvetica,sans-Serif" font-size="14.00">config</text>
</g>
<!-- a&#45;&gt;b -->
<g id="edge8" class="edge"><title>a&#45;&gt;b</title>
<path fill="none" stroke="black" d="M210.101,-147.955C205.99,-139.62 201.021,-129.542 196.465,-120.304"/>
<polygon fill="black" stroke="black" points="199.483,-118.511 191.921,-111.09 193.205,-121.607 199.483,-118.511"/>
</g>
<!-- i -->
<g id="node15" class="node"><title>i</title>
<polygon fill="orange" stroke="none" points="282,-111 228,-111 228,-75 282,-75 282,-111"/>
</g>
<!-- a&#45;&gt;i -->
<g id="edge14" class="edge"><title>a&#45;&gt;i</title>
<path fill="none" stroke="black" d="M227.899,-147.955C232.01,-139.62 236.979,-129.542 241.535,-120.304"/>
<polygon fill="black" stroke="black" points="244.795,-121.607 246.079,-111.09 238.517,-118.511 244.795,-121.607"/>
</g>
</g>
</svg>
