<?xml version="1.0" encoding="UTF-8" standalone="no"?>
<!DOCTYPE svg PUBLIC "-//W3C//DTD SVG 1.1//EN"
 "http://www.w3.org/Graphics/SVG/1.1/DTD/svg11.dtd">
<!-- Generated by graphviz version 2.26.3 (20100126.1600)
 -->
<!-- Title: G Pages: 1 -->
<svg width="272pt" height="190pt"
 viewBox="0.00 0.00 272.00 190.00" xmlns="http://www.w3.org/2000/svg" xmlns:xlink="http://www.w3.org/1999/xlink">
<g id="graph1" class="graph" transform="scale(1 1) rotate(0) translate(4 186)">
<title>G</title>
<polygon fill="white" stroke="white" points="-4,5 -4,-186 269,-186 269,5 -4,5"/>
<!-- cc -->
<g id="node1" class="node"><title>cc</title>
<ellipse fill="orange" stroke="none" cx="41" cy="-19" rx="41.0122" ry="19.0919"/>
<text text-anchor="middle" x="41" y="-15.9" font-family="Helvetica,sans-Serif" font-size="14.00">tomcat</text>
</g>
<!-- d -->
<g id="node3" class="node"><title>d</title>
<polygon fill="red" stroke="none" points="264,-37 204,-37 204,-1 264,-1 264,-37"/>
<text text-anchor="middle" x="234" y="-15.9" font-family="Helvetica,sans-Serif" font-size="14.00">is24&#45;jcr</text>
</g>
<!-- cc&#45;&gt;d -->
<g id="edge2" class="edge"><title>cc&#45;&gt;d</title>
<path fill="none" stroke="black" stroke-dasharray="1,5" d="M61.1879,-35.6424C71.9906,-43.4691 85.9403,-51.9562 100,-56 136.733,-66.5652 149.82,-68.326 186,-56 193.843,-53.328 201.403,-48.7986 208.112,-43.8074"/>
<polygon fill="black" stroke="black" points="210.533,-46.3507 216.112,-37.3434 206.134,-40.906 210.533,-46.3507"/>
</g>
<!-- c -->
<g id="node5" class="node"><title>c</title>
<polygon fill="lightgrey" stroke="none" points="186,-37 100,-37 100,-1 186,-1 186,-37"/>
<text text-anchor="middle" x="143" y="-15.9" font-family="Helvetica,sans-Serif" font-size="14.00">is24&#45;tomcat</text>
</g>
<!-- cc&#45;&gt;c -->
<g id="edge4" class="edge"><title>cc&#45;&gt;c</title>
<path fill="none" stroke="black" d="M82.0391,-19C84.5171,-19 86.9951,-19 89.4731,-19"/>
<polygon fill="black" stroke="black" points="89.6606,-22.5001 99.6606,-19 89.6605,-15.5001 89.6606,-22.5001"/>
</g>
<!-- a -->
<g id="node7" class="node"><title>a</title>
<polygon fill="orange" stroke="none" points="215,-182 161,-182 161,-146 215,-146 215,-182"/>
<text text-anchor="middle" x="188" y="-160.9" font-family="Helvetica,sans-Serif" font-size="14.00">config</text>
</g>
<!-- b -->
<g id="node8" class="node"><title>b</title>
<polygon fill="orange" stroke="none" points="239,-110 137,-110 137,-74 239,-74 239,-110"/>
<text text-anchor="middle" x="188" y="-88.9" font-family="Helvetica,sans-Serif" font-size="14.00">is24&#45;someapp</text>
</g>
<!-- a&#45;&gt;b -->
<g id="edge7" class="edge"><title>a&#45;&gt;b</title>
<path fill="none" stroke="black" d="M188,-145.831C188,-138.131 188,-128.974 188,-120.417"/>
<polygon fill="black" stroke="black" points="191.5,-120.413 188,-110.413 184.5,-120.413 191.5,-120.413"/>
</g>
<!-- b&#45;&gt;d -->
<g id="edge11" class="edge"><title>b&#45;&gt;d</title>
<path fill="none" stroke="black" d="M199.371,-73.9551C204.734,-65.4441 211.242,-55.1165 217.162,-45.7219"/>
<polygon fill="black" stroke="black" points="220.23,-47.4167 222.601,-37.0904 214.308,-43.6848 220.23,-47.4167"/>
</g>
<!-- b&#45;&gt;c -->
<g id="edge9" class="edge"><title>b&#45;&gt;c</title>
<path fill="none" stroke="black" d="M176.876,-73.9551C171.63,-65.4441 165.264,-55.1165 159.472,-45.7219"/>
<polygon fill="black" stroke="black" points="162.379,-43.7663 154.152,-37.0904 156.42,-47.4396 162.379,-43.7663"/>
</g>
</g>
</svg>
